<?xml version="1.0" standalone="no"?>
<!DOCTYPE svg PUBLIC "-//W3C//DTD SVG 20010904//EN"
 "http://www.w3.org/TR/2001/REC-SVG-20010904/DTD/svg10.dtd">
<svg version="1.0" xmlns="http://www.w3.org/2000/svg"
 width="1143.000000pt" height="1280.000000pt" viewBox="0 0 1143.000000 1280.000000"
 preserveAspectRatio="xMidYMid meet">
<metadata>
Created by potrace 1.15, written by Peter Selinger 2001-2017
</metadata>
<g transform="translate(0.000000,1280.000000) scale(0.100000,-0.100000)"
fill="#000000" stroke="none">
<path d="M5250 12724 c0 -10 -13 -28 -29 -39 -121 -86 -121 -86 -121 -136 0
-72 -12 -95 -55 -103 -70 -14 -423 -117 -600 -177 -667 -225 -1316 -546 -1875
-927 -970 -660 -1722 -1510 -2224 -2512 -61 -124 -140 -290 -173 -370 -58
-137 -143 -354 -143 -366 0 -3 33 23 73 56 97 83 232 172 342 227 103 52 215
96 223 88 3 -3 0 -5 -7 -5 -15 0 -131 -238 -165 -342 -33 -96 -34 -170 -5
-199 34 -34 93 -22 281 59 173 75 280 109 426 139 124 26 535 25 672 0 163
-31 299 -67 470 -125 148 -50 174 -56 250 -56 105 -1 126 8 314 132 242 160
443 249 651 288 130 24 346 15 470 -19 124 -35 230 -82 360 -158 137 -81 182
-99 248 -99 68 1 103 14 248 95 196 109 424 215 465 215 7 0 19 7 27 15 26 26
0 436 216 -3375 l169 -2985 -5 -604 c-7 -680 -10 -647 68 -690 30 -17 55 -22
110 -22 39 0 78 2 87 5 15 5 17 -6 18 -109 1 -107 3 -120 30 -173 38 -74 87
-104 160 -99 103 7 157 81 156 216 0 42 -12 162 -26 266 -15 105 -38 273 -52
375 -13 102 -36 262 -49 355 -43 300 -37 209 -120 1675 -39 684 -46 808 -65
1140 -11 195 -29 513 -40 705 -11 193 -22 384 -25 425 -2 41 -7 120 -10 175
-6 107 -31 560 -40 710 -3 50 -8 131 -10 180 -3 50 -8 124 -10 165 -5 83 -12
206 -20 350 -10 179 -16 275 -20 350 -3 41 -9 165 -15 275 -5 110 -12 223 -15
250 -3 28 -6 109 -7 181 0 110 2 137 19 175 42 93 102 125 217 116 99 -8 186
-37 366 -123 87 -42 175 -76 201 -80 72 -10 133 16 230 96 259 216 384 296
542 348 129 43 220 55 357 49 157 -8 223 -24 535 -129 391 -132 435 -132 664
5 254 153 441 231 661 278 89 19 137 23 315 23 228 1 291 -6 620 -70 297 -59
382 -49 415 44 19 56 4 128 -50 236 -42 85 -212 330 -230 332 -23 3 -24 5 -10
14 13 8 12 15 -9 52 -45 81 -306 439 -463 637 -104 131 -426 459 -563 573
-364 304 -842 601 -1315 818 -818 375 -1355 560 -2060 710 -74 16 -241 54
-370 84 -277 64 -562 126 -584 126 -10 0 -19 16 -26 43 -37 142 -63 233 -66
236 -2 2 -4 -4 -4 -15z m398 -4415 c37 -60 38 -76 67 -589 8 -146 17 -301 20
-345 3 -44 9 -165 15 -270 5 -104 12 -219 15 -255 2 -36 7 -117 10 -180 3 -63
7 -144 10 -180 3 -36 7 -112 10 -170 3 -58 7 -139 10 -180 3 -41 7 -118 10
-170 9 -155 15 -270 20 -350 2 -41 7 -122 10 -180 7 -124 14 -257 30 -520 2
-41 7 -120 10 -175 3 -55 12 -215 20 -355 8 -140 22 -379 30 -530 8 -151 17
-311 20 -355 3 -44 12 -201 20 -350 8 -148 17 -301 20 -340 2 -38 7 -124 10
-190 3 -66 8 -138 10 -160 2 -22 7 -107 11 -190 3 -82 8 -158 10 -168 1 -9 5
-113 9 -230 3 -116 7 -261 10 -322 l4 -110 -18 125 c-10 69 -23 170 -30 225
-6 55 -20 174 -31 265 -10 91 -28 329 -40 530 -11 201 -24 439 -30 530 -5 91
-14 248 -20 350 -6 102 -15 259 -20 350 -5 91 -14 248 -20 350 -6 102 -15 262
-21 355 -5 94 -45 802 -89 1575 -44 773 -84 1482 -89 1575 -34 576 -42 737
-32 700 4 -16 18 -46 29 -66z m419 -6911 c-3 -7 -5 -2 -5 12 0 14 2 19 5 13 2
-7 2 -19 0 -25z"/>
</g>
</svg>
